<?xml version="1.0" encoding="UTF-8"?> <svg xmlns="http://www.w3.org/2000/svg" id="Livello_1" data-name="Livello 1" viewBox="0 0 376 110.9"><defs><style>.cls-1{fill:#00408f;}.cls-2{fill:#ea933e;}</style></defs><rect class="cls-1" x="163.6" y="-0.4" width="2" height="110.93"></rect><path class="cls-1" d="M253.9,110.5c-.5,0-.7-.2-.7-.7V62.9h-1.6l-27.4,47.5h-4.6L192.5,62.9H191v46.9c0,.5-.3.7-.8.7h-5.5c-.5,0-.7-.2-.7-.7V58.2c0-.6.2-.9.7-.9h12.6l24.6,43.5,25.4-43.4a.8.8,0,0,1,.6-.2h11.4q.6,0,.6.9v51.6c0,.5-.2.7-.6.7Z"></path><path class="cls-1" d="M267.5,110.5c-.5,0-.8-.2-.8-.7V58.2c0-.6.3-.9.8-.9h44.9c.4,0,.7.3.7.9v5.3a.7.7,0,0,1-.7.8H273.5V79.7h37.6c.5,0,.7.3.7.8v5.3c0,.6-.2.9-.7.9H273.5v16.9h38.9a.7.7,0,0,1,.7.8v5.4a.6.6,0,0,1-.7.7Z"></path><path class="cls-1" d="M375.1,98.1c-.7,3.2-1.7,5.6-3.2,7.2a14.2,14.2,0,0,1-7,3.9,43.7,43.7,0,0,1-11.8,1.3H317.8c-.5,0-.8-.2-.8-.7V58.2c0-.6.3-.9.8-.9h33.8q10.8,0,16.2,3a13.5,13.5,0,0,1,7.1,9.5,58,58,0,0,1,.8,6.4c.2,2.7.3,6,.3,10A64.8,64.8,0,0,1,375.1,98.1Zm-5.8-16.3c0-7.4-1-12.1-3.1-14.2s-6.8-3.3-13.9-3.3H323.8v39.3h29.9c5.2,0,8.9-.4,10.8-1.4s3.4-2.3,4-4.9a17.2,17.2,0,0,0,.6-4.2c.2-2,.2-4.3.2-6.9Z"></path><path class="cls-1" d="M189.4,22.7V56.6c0,.5-.2.7-.7.7h-4.1c-.3,0-.4-.2-.4-.7V16.1c0-11,3.5-16.5,10.6-16.5h9.3c.4,0,.6.2.6.7s0,.3-.1.4h0l-3.5,6.2h-5.2A7.8,7.8,0,0,0,193,7a4.2,4.2,0,0,0-1.8,1.1,7.3,7.3,0,0,0-1.3,2.8,20.8,20.8,0,0,0-.5,4.8h15.2c.5,0,.7.2.7.7V22a.6.6,0,0,1-.7.7Z"></path><path class="cls-1" d="M241.9,53.2c-2.3,2.8-5.6,4.1-9.8,4.1H220.4q-13.5,0-13.5-16.2V32.3c0-5.4,1.2-9.5,3.5-12.3a13.6,13.6,0,0,1,10-3.9h11.7c4.1,0,7.4,1.3,9.8,4a11.3,11.3,0,0,1,2.7,5.2,24.8,24.8,0,0,1,.9,7v8.8C245.5,46.5,244.3,50.5,241.9,53.2ZM240,32.3c0-6.7-2.8-10-8.2-10H220.9c-5.5,0-8.3,3.3-8.3,10v8.8c0,6.7,2.8,10.1,8.3,10.1h10.9c5.4,0,8.2-3.4,8.2-10.1Z"></path><path class="cls-1" d="M288.5,42.3v.3c0,9.8-4.3,14.7-13,14.7H262.4c-8.3,0-12.4-5.1-12.4-15.4V32a22.4,22.4,0,0,1,.8-6.7,11.6,11.6,0,0,1,2.7-5,11.9,11.9,0,0,1,9.2-4.2h12.8c4,0,7.1,1.1,9.3,3.4s3.7,6.3,3.7,11.2c0,.5-.2.7-.6.7h-4.3c-.4,0-.6-.2-.6-.7h0c0-5.5-2.5-8.3-7.5-8.3H262.7c-2.4,0-4.3.8-5.4,2.4a13.3,13.3,0,0,0-1.7,7.3v9.9a10.7,10.7,0,0,0,1.9,6.7,5.8,5.8,0,0,0,4.9,2.5h13.1c5,0,7.5-2.8,7.5-8.3v-.2c0-.4.2-.7.6-.7h4.5Z"></path><path class="cls-1" d="M330.4,16.1a.6.6,0,0,1,.7.7V39.9c0,5.7-1.2,10-3.5,13a12.2,12.2,0,0,1-9.9,4.4H306.5a12.2,12.2,0,0,1-10-4.5c-2.3-3-3.5-7.3-3.5-12.7V16.9c0-.5.2-.7.6-.7h4.3c.5,0,.8.2.8.7V40.8c0,3.2.7,5.7,2.2,7.5a7.1,7.1,0,0,0,5.6,2.7h11.2a7.1,7.1,0,0,0,5.7-2.7,12,12,0,0,0,2.2-7.5v-24c0-.4.2-.7.6-.7Z"></path><path class="cls-1" d="M368.3,30.1c-.4,0-.6-.3-.6-.8a19,19,0,0,0-.3-3.7,5.6,5.6,0,0,0-.7-2.1c-.8-.8-2.4-1.2-4.6-1.2H346c-1.8,0-3,.4-3.7,1.3s-1,2.6-1,5.1a5.4,5.4,0,0,0,.2,1.5,1.6,1.6,0,0,0,.7.7,3.5,3.5,0,0,0,1.2.3H346c0,.1.7.2,2.1.2l6.1.2h4.9a15.3,15.3,0,0,1,5.6.9,13.9,13.9,0,0,1,4,2.2,11,11,0,0,1,3.2,4.8,20.9,20.9,0,0,1,1,7.1c0,6.9-3.6,10.3-10.9,10.3H346a14.5,14.5,0,0,1-4.9-.7,6.8,6.8,0,0,1-3.2-2.2c-1.4-2-2.1-5.5-2.1-10.4,0-.5.2-.7.6-.7h4.2c.5,0,.7.2.7.7,0,3,.4,5,1,5.9a2.1,2.1,0,0,0,1.5,1,9.8,9.8,0,0,0,2.6.3H362a6,6,0,0,0,4.3-1.4c.8-.8,1.3-2.5,1.3-5.1a4.6,4.6,0,0,0-1.5-3.6,13.6,13.6,0,0,0-4-2,27,27,0,0,0-5.2-.8,52.4,52.4,0,0,0-5.5-.2h-2.5l-4.9-.2a14.9,14.9,0,0,1-4-.8,5,5,0,0,1-3.3-3.7,27,27,0,0,1-.8-6.8,10.7,10.7,0,0,1,3.3-8.3,11.9,11.9,0,0,1,7.1-2.2h15.2c4.1,0,7,.8,8.8,2.6s2.8,5.7,2.8,10.6c0,.5-.2.8-.6.8Z"></path><path class="cls-2" d="M147.8,104.1a62.1,62.1,0,0,1-4.6-14,60.5,60.5,0,0,1-1.3-7.2c-.4-2.5-.8-5-1.4-7.5a25.6,25.6,0,0,0-2.2-6.6l1.8,1.4a79.1,79.1,0,0,0,7.5,5.4c-4.5-4.1-8.8-8.5-12.9-13-2-2.3-4.1-4.5-5.9-6.9s-3.8-4.8-5.4-7.3a36.6,36.6,0,0,0-6.5-7.1,46.4,46.4,0,0,0-7.9-5.1,59.1,59.1,0,0,0-17.4-5.6h.6l1.5-.5a10.5,10.5,0,0,0,2.1-1.2l1-.6,1-.5a37.8,37.8,0,0,1,8.3-3.3,109.8,109.8,0,0,1,18.1-2.7c6.1-.4,12.3-.5,18.4-.4a162.6,162.6,0,0,0-18.5-1,104.7,104.7,0,0,0-18.5,2,37.5,37.5,0,0,0-9,3.3l-1.1.5-1,.6-1.9,1.1-.7.2H88.7c-6-.4-12.1-1.9-18.4-2.3a50.5,50.5,0,0,0-9.5.2l-1.1.2-1.2.2-2.4.6a10.1,10.1,0,0,0-2.3.7l-1.7.8A64.3,64.3,0,0,0,59,18.3c2.4-4.5,3.9-9.3,5.7-14L66.2-.4H63.4L62,3.4l-2.4,7A70.4,70.4,0,0,1,57,17.3,106.8,106.8,0,0,1,51.1,29c-2.6,1.6-4.8,3.5-7.2,5.2a61.9,61.9,0,0,1-7.5,5.1,30.5,30.5,0,0,1-4.1,1.9l-2.1.9-.6.2a14.1,14.1,0,0,1,.8-10.5A17.9,17.9,0,0,1,33.5,27l3.8-4.6a127.1,127.1,0,0,0,12-18.2c1.4-1.5,2.8-3,4.1-4.6H48.7A7.5,7.5,0,0,1,48,.8c-1.9,3.5-3.8,7-5.9,10.3s-4.3,6.7-6.5,10L32,25.9a21.6,21.6,0,0,0-2.9,5.4,14.4,14.4,0,0,0,.3,11h-.2l-.6.2h-.4a3.3,3.3,0,0,1-1.9-.2,8.4,8.4,0,0,1-2-.8,38.4,38.4,0,0,1-3.9-2.2c-2.4-1.5-4.6-3.2-6.9-4.9a47.9,47.9,0,0,1,2-10l.5-1.4.2-.6.4-.6a16.7,16.7,0,0,1,1.6-2.4c1.2-1.5,2.5-2.9,3.8-4.3,2.8-2.8,5.6-5.6,8.5-8.3L38.6-.4h-9l-2,3.7a33.8,33.8,0,0,1-3,4.7c-1.1,1.6-2.2,3.1-3.4,4.6l-2.3,3-.7.9c-1.3,1.7-2.7,3.4-4.1,5s-2.6,2.8-4,4.1A11.8,11.8,0,0,1,8,27.4a5.2,5.2,0,0,1-2.6,1.2,6.9,6.9,0,0,0,2.8-.8,14.3,14.3,0,0,0,2.4-1.6,30.9,30.9,0,0,0,3.9-3.3l-.3,1.3a39.2,39.2,0,0,0-.9,10.2L5.4,28.6l8,7a1.3,1.3,0,0,0,.1.6v-.6c2,1.8,4,3.4,6.1,5l1.6,1.1a39.5,39.5,0,0,0-6-1,29.1,29.1,0,0,0-7.8.1A19.5,19.5,0,0,0,0,43.2c4.8-2,10.1-2,15.1-1.2a60.2,60.2,0,0,1,7.3,1.9,22.3,22.3,0,0,1,4.7,2.2l-2.3.4a21.3,21.3,0,0,0-3.5,1.4A11.5,11.5,0,0,0,18,50a16.9,16.9,0,0,0-2.6,2.8l-2.3,2.8A19.9,19.9,0,0,1,8,60.5a8.3,8.3,0,0,0,3.7-1.1,23.7,23.7,0,0,0,3-2.3,21.3,21.3,0,0,0,2.6-2.6l2.5-2.4a25.6,25.6,0,0,1,5.8-3.5l3.2-1.4h.5l2,.7,1.9.5,3.7,1,7.4,2.2,7.4,2.2L55.3,55l1.8.6a7.6,7.6,0,0,0,2,.6,37,37,0,0,0,8,.9h3.8a73.5,73.5,0,0,0-9.4,3,48.3,48.3,0,0,0-5.2,2.3l-2.4,1.1-2.5,1.1a22.8,22.8,0,0,0-5.1,2.7,10.7,10.7,0,0,0-3.6,4.3c2.5-2.9,5.9-3.9,9.4-5a47.2,47.2,0,0,0,5.3-1.8l5.1-2.1,10.2-3.9,5.7-2.2A50.6,50.6,0,0,0,89.1,54a2.7,2.7,0,0,0,.8.7,9.7,9.7,0,0,0,2.3,1.1,25.6,25.6,0,0,0,4.8,1,62.8,62.8,0,0,0,9.7,0c3.2-.3,6.3-.7,9.5-1.3l4.7-.8a1.4,1.4,0,0,1,.2.7,10.3,10.3,0,0,1,.1,1.7,22.3,22.3,0,0,1-.5,3.6,15.9,15.9,0,0,1-.9,3.3,5.3,5.3,0,0,1-2.1,2.1,23.7,23.7,0,0,1-6.4,2.5l-3.5.7-3.5.5c-2.5.3-4.9.9-7.3,1.4s-4.6,1.1-7,1.5l-3.6.6-3.6.6L75.7,75a58.6,58.6,0,0,0,7.3.3l7.3-.4h1.1a22.1,22.1,0,0,1,6.4,2.3,27.2,27.2,0,0,1,7.3,6.3,30.5,30.5,0,0,0,8.1,6.5,16.1,16.1,0,0,0,8.8,1.8l.7,1.4,1.9,3.5c2.7,4.5,5.7,8.8,8.8,13l1.3,1.7H137l-1.8-2.9-4.1-6.7c-1.4-2.2-2.8-4.3-4.1-6.6s-1.3-2.2-1.9-3.3l-.8-1.6-.3-.8-.3-1c-.8-2.4-1.5-4.9-2.1-7.4a66.3,66.3,0,0,1-1.5-7.5,36.4,36.4,0,0,1-.1-6.6,5.4,5.4,0,0,0,1.5-2.3,16.7,16.7,0,0,0,.6-3.8c0-1.2,0-2.4-.1-3.7a6.1,6.1,0,0,0-.5-1.8l-.3-.7,2.9-.5a94.5,94.5,0,0,0,9,10l2.7,2.5a13.6,13.6,0,0,1,1,2.1,38.8,38.8,0,0,1,1.6,7.1l.9,7.4a64.6,64.6,0,0,0,1.1,7.5,62.9,62.9,0,0,0,2.2,7.4,44.7,44.7,0,0,0,3.3,7,47,47,0,0,0,4,5.9v-1h0v-1.8A38.4,38.4,0,0,1,147.8,104.1ZM119.5,81.5a66,66,0,0,0,1.7,7.7l.3,1a5.4,5.4,0,0,0,.3,1h0a19.4,19.4,0,0,1-7.5-3.2,44.4,44.4,0,0,1-7.2-6.6,23,23,0,0,0-8.4-6.2,11.5,11.5,0,0,0-3.3-1l2.2-.4c2.4-.5,4.7-1,7.1-1.3l3.6-.5c1.2-.3,2.5-.5,3.7-.9l3.5-1.3a16.3,16.3,0,0,0,3.4-1.9l.7-.6a22.2,22.2,0,0,0-.8,6.3A42.2,42.2,0,0,0,119.5,81.5ZM67.2,54.4a29.4,29.4,0,0,1-7.4-.9L58,53l-1.8-.6-3.7-1.2L45,49.1l-7.5-2-3.8-1-1.8-.4-1.7-.5-1.5-.7h.5l.5-.2,1.2-.3,2.2-.8,4.3-1.9a59.6,59.6,0,0,0,8-5A72,72,0,0,1,52.9,31a16.8,16.8,0,0,1,3.9-1.6l2.2-.5,1.1-.2h1.1a37.8,37.8,0,0,1,8.9-.1,90.4,90.4,0,0,1,9.1,1.1c3.1.4,6.1.9,9.3,1.1h3A94.7,94.7,0,0,1,108,38.1a51.3,51.3,0,0,1,6.5,4.7,12.4,12.4,0,0,0-3.3.4c-1.3.2-2.5.6-3.8.9l-3.7,1.3c-4.9,1.8-9.4,4.4-14.1,6.1a50.3,50.3,0,0,1-14.8,2.8Zm53.6-1.1h-4.9c-3.1.1-6.3.3-9.4.6l-9.4.6a34.9,34.9,0,0,1-4.6-.1l-2.3-.4-.6-.3.7-.3c4.9-2,9.3-4.8,13.9-6.9l3.5-1.4,3.7-1.3a11.6,11.6,0,0,1,3.7-.7h.1a36.7,36.7,0,0,1,5.9,6.6l2.5,3.6Z"></path></svg> 